<svg xmlns="http://www.w3.org/2000/svg" width="515.73" height="532.76" viewBox="0 0 515.73 532.76">
    <path d="M434.37,457.24c-1.27,1.53-2.25,2.88-3.4,4.07q-30.69,31.41-61.4,62.77c-2.13,2.17-4.28,4.33-6.38,6.52a5.66,5.66,0,0,1-4.26,1.86l-21.59-.08a5.57,5.57,0,0,1-.9-.23c0-.81-.1-1.66-.1-2.51,0-6.16.12-12.33-.07-18.48a8.67,8.67,0,0,1,2.92-7c7.62-7.43,15.12-15,22.66-22.48l33.16-33c4.19-4.17,8.37-8.36,12.59-12.51.95-.94,2-1.73,3.22-2.7-.58-.54-1.13-1.09-1.71-1.58l-68.77-57.64c-.56-.46-1.08-1-1.67-1.38a5.66,5.66,0,0,1-2.39-5.16c.13-6.07.12-12.16.06-18.24a6.45,6.45,0,0,1,2.34-5.25,29.12,29.12,0,0,1,10.1-6.29,16.05,16.05,0,0,1,3.25-.79c5.05-.57,8,1.44,8.93,6.46a8.71,8.71,0,0,0,3.29,5.31q34.33,29.06,68.63,58.18c.6.5,1.24.95,2,1.51,1.28-1,2.45-2,3.6-3q33.81-28.38,67.64-56.75a8.12,8.12,0,0,0,3.15-5.16,10.87,10.87,0,0,1,1.35-3.56,6,6,0,0,1,5.09-3.1,14.06,14.06,0,0,1,6.52,1.3,29.45,29.45,0,0,1,9.87,7.08,4.12,4.12,0,0,1,1,2.55c.08,6.88,0,13.76,0,20.64,0,1.87-1,3.1-2.37,4.22q-8.6,7.31-17.18,14.62-25.88,22-51.77,43.93c-.72.62-1.42,1.26-2,1.77q35.64,35.9,71.09,71.57a7.2,7.2,0,0,1,2.35,5.3c0,6.72,0,13.44-.07,20.16,0,.63-.08,1.25-.13,2-.79,0-1.49.13-2.18.14-6.16,0-12.32,0-18.47.1a7.39,7.39,0,0,1-5.74-2.41q-35.07-35.5-70.22-70.94C435.77,458.48,435.05,457.86,434.37,457.24Z"
          transform="translate(-176.89 -173.05)" fill="#fff"/>
</svg>
