<svg xmlns="http://www.w3.org/2000/svg" width="245.11" height="200.52" viewBox="0 0 245.11 200.52"><path d="M1072.35,545.15l1.63.67a2.74,2.74,0,0,1,.77.3,44.77,44.77,0,0,1,5.85,5c1,1.19,1.23,3.11,1.8,4.71.28.81.51,1.64.81,2.45.14.37.54.7.54,1.05a42.05,42.05,0,0,1,0,4.77c-.27,2.22-2,3.41-4.38,3.49-3.71.12-7.43.08-11.15.12s-7.19.11-10.79.11q-17.81,0-35.63,0c-10.8,0-21.59-.12-32.39-.14-5.79,0-11.59.16-17.39.14-9.23,0-18.46-.16-27.69-.23-6.08,0-12.15-.1-18.23-.07-10.19,0-20.39.17-30.58.22-7.92,0-15.83,0-23.75,0-6.88,0-13.75.06-20.63.17a6.65,6.65,0,0,1-5.57-3c-.93-1.25-1.76-2.39-3.55-2.81l1-.51a.85.85,0,0,0,0-.26,23,23,0,0,1-1-2.42c-.16-.53,0-1.14-.09-1.69a18,18,0,0,0-.63-2.17c-.19-.58-.46-1.14-.62-1.72-.27-1-.46-2.09-.72-3.12-.38-1.55-.87-3.08-1.14-4.64s.18-1.92,1.63-2c2.36-.13,4.71-.27,7.07-.28,7,0,13.92,0,20.87,0q34.26,0,68.52-.05c9.51,0,19-.18,28.54-.22,21.36-.09,42.71-.19,64.07-.19,11.39,0,22.79.15,34.18.27,2.63,0,5.26.18,7.89.34C1072.46,543.56,1073.22,543.9,1072.35,545.15Z" transform="translate(-838.69 -452.45)" fill="#fff"/><path d="M965.27,473.26c-7.39.13-14.79.36-22.18.36-15.43,0-30.87,0-46.3-.27-13.06-.27-26.11-1-39.16-1.56a34.77,34.77,0,0,1-6.15-.94c-2.52-.58-3.39-2.11-4.81-4.3a26.59,26.59,0,0,1-3.64-7.64,4.08,4.08,0,0,0-.49-1c-.93-1.53-.44-2.81,1.33-3.11a51.75,51.75,0,0,1,7.17-1.17q10-.48,20-.58,31.37-.28,62.73-.41c9.68-.06,19.35,0,29-.06,11.52,0,23-.25,34.55-.16,16.26.12,32.53.46,48.8.69,4.39.06,8.79.06,13.18.08a5.68,5.68,0,0,1,3.87,1.12,50.37,50.37,0,0,0,6.14,3.68c.17.1.44.12.53.26q1.45,2.43,2.86,4.91c.11.19,0,.6.13.68,1.76,1.05,1.17,2.85,1.4,4.37a3.43,3.43,0,0,1-3.34,4.29c-1,.1-2.08.12-3.11.12-11.32,0-22.64,0-34,0-6.55,0-13.1.28-19.66.33-13.19.08-26.38.09-39.57.13h-9.35Z" transform="translate(-838.69 -452.45)" fill="#fff"/><path d="M881.09,639.38h27.69l0-.43h-6.25v-.36c.08-.06.17-.17.26-.17,6-.08,12.07-.18,18.11-.22,1.39,0,2.78.24,4.18.3,1.88.09,3.77.06,5.65.19,2.12.15,4.24.43,6.37.65.07,0,.18.1.21.08,1.83-1.23,3.52.73,5.32.2a20,20,0,0,1,2.17-.47,6.21,6.21,0,0,1,1.22.06c1.06-1.91,3-.64,4.92-.93l-.65.76.1.26c.5-.14,1-.29,1.48-.41s1.21-.51,1.69-.36c3.26,1,6.59.49,9.89.62.68,0,1.36,0,2.37,0l-1-.51,0-.35a11.7,11.7,0,0,1,1.81-.33c7,0,14.08,0,21.12-.07,4.67,0,9.34-.32,14-.39,2.92,0,5.83.18,8.75.16,9-.08,18-.27,27-.34,7.75-.06,15.5,0,23.25,0a6.41,6.41,0,0,0,1.07,0c4-.73,6.29,1.71,8.5,4.34a4.9,4.9,0,0,1,.89,1.67,4.68,4.68,0,0,1-.22,1.56,1.86,1.86,0,0,1,0,2.46c-.22.3,0,.85-.12,1.27a4.77,4.77,0,0,1-4.34,3.68c-4,0-7.91,0-11.87.13-9,.16-17.9.45-26.85.51-5.39,0-10.78-.29-16.17-.39q-10.62-.2-21.23-.28c-5.87,0-11.75,0-17.62,0-8.84,0-17.67-.18-26.51-.22-7.55,0-15.11,0-22.66,0-10.36,0-20.71.06-31.06,0q-15.95-.12-31.89-.5c-4.15-.1-8.29-.57-12.42-.94a2.23,2.23,0,0,1-1.52-.78c-1.35-2.12-2.72-4.27-2.21-7a4.7,4.7,0,0,0,0-1.67c-.25-1.33.42-1.67,1.57-1.72,6.9-.28,13.81-.65,20.72-.87,4.43-.14,8.87-.1,13.31-.14C880.79,638.4,881.56,638.29,881.09,639.38Z" transform="translate(-838.69 -452.45)" fill="#fff"/></svg>
